<svg width="159" height="70" viewBox="0 0 159 70" fill="none" xmlns="http://www.w3.org/2000/svg">
<path d="M0.5 33C0.5 15.0507 15.0507 0.5 33 0.5H126C143.949 0.5 158.5 15.0507 158.5 33V37C158.5 54.9493 143.949 69.5 126 69.5H33C15.0507 69.5 0.5 54.9493 0.5 37V33Z" stroke="#D4D4D4"/>
<path d="M11 35C11 19.536 23.536 7 39 7C54.464 7 67 19.536 67 35C67 50.464 54.464 63 39 63C23.536 63 11 50.464 11 35Z" fill="#274C5B"/>
<g clip-path="url(#clip0_1_30)">
<path d="M36.7779 46.0001C37.4529 46.0001 38.0001 45.4529 38.0001 44.7779C38.0001 44.1029 37.4529 43.5557 36.7779 43.5557C36.1029 43.5557 35.5557 44.1029 35.5557 44.7779C35.5557 45.4529 36.1029 46.0001 36.7779 46.0001Z" fill="white" stroke="white" stroke-width="1.5" stroke-linecap="round" stroke-linejoin="round"/>
<path d="M45.3336 46.0001C46.0086 46.0001 46.5558 45.4529 46.5558 44.7779C46.5558 44.1029 46.0086 43.5557 45.3336 43.5557C44.6585 43.5557 44.1113 44.1029 44.1113 44.7779C44.1113 45.4529 44.6585 46.0001 45.3336 46.0001Z" fill="white" stroke="white" stroke-width="1.5" stroke-linecap="round" stroke-linejoin="round"/>
<path d="M27 24H30.7819L33.6183 40.0731H48.7459" stroke="white" stroke-width="2" stroke-linecap="round" stroke-linejoin="round"/>
<path d="M33.1112 36.1837L48.3584 36.2907C48.4677 36.2908 48.5737 36.2529 48.6583 36.1837C48.7429 36.1144 48.8008 36.0179 48.8223 35.9107L50.5241 27.4014C50.5378 27.3328 50.5362 27.262 50.5192 27.1941C50.5023 27.1262 50.4705 27.063 50.4261 27.0089C50.3817 26.9548 50.3259 26.9112 50.2626 26.8813C50.1993 26.8514 50.1302 26.8359 50.0602 26.8359H31.5674" stroke="white" stroke-width="2" stroke-linecap="round" stroke-linejoin="round"/>
</g>
<path d="M128.034 31.582V33.5332C128.034 34.582 127.94 35.4668 127.753 36.1875C127.565 36.9082 127.296 37.4883 126.944 37.9277C126.593 38.3672 126.168 38.6865 125.67 38.8857C125.178 39.0791 124.621 39.1758 124 39.1758C123.508 39.1758 123.054 39.1143 122.638 38.9912C122.222 38.8682 121.847 38.6719 121.513 38.4023C121.185 38.127 120.903 37.7695 120.669 37.3301C120.435 36.8906 120.256 36.3574 120.133 35.7305C120.01 35.1035 119.948 34.3711 119.948 33.5332V31.582C119.948 30.5332 120.042 29.6543 120.229 28.9453C120.423 28.2363 120.695 27.668 121.047 27.2402C121.398 26.8066 121.82 26.4961 122.312 26.3086C122.811 26.1211 123.367 26.0273 123.982 26.0273C124.48 26.0273 124.938 26.0889 125.354 26.2119C125.775 26.3291 126.15 26.5195 126.479 26.7832C126.807 27.041 127.085 27.3867 127.313 27.8203C127.548 28.248 127.727 28.7725 127.85 29.3936C127.973 30.0146 128.034 30.7441 128.034 31.582ZM126.399 33.7969V31.3096C126.399 30.7354 126.364 30.2314 126.294 29.7979C126.229 29.3584 126.133 28.9834 126.004 28.6729C125.875 28.3623 125.711 28.1104 125.512 27.917C125.318 27.7236 125.093 27.583 124.835 27.4951C124.583 27.4014 124.299 27.3545 123.982 27.3545C123.596 27.3545 123.253 27.4277 122.954 27.5742C122.655 27.7148 122.403 27.9404 122.198 28.251C121.999 28.5615 121.847 28.9688 121.741 29.4727C121.636 29.9766 121.583 30.5889 121.583 31.3096V33.7969C121.583 34.3711 121.615 34.8779 121.68 35.3174C121.75 35.7568 121.853 36.1377 121.987 36.46C122.122 36.7764 122.286 37.0371 122.479 37.2422C122.673 37.4473 122.896 37.5996 123.147 37.6992C123.405 37.793 123.689 37.8398 124 37.8398C124.398 37.8398 124.747 37.7637 125.046 37.6113C125.345 37.459 125.594 37.2217 125.793 36.8994C125.998 36.5713 126.15 36.1523 126.25 35.6426C126.35 35.127 126.399 34.5117 126.399 33.7969Z" fill="#274C5B"/>
<path d="M85.6992 36.1567H87.293C87.21 36.9204 86.9914 37.6038 86.6372 38.207C86.283 38.8102 85.7822 39.2889 85.1348 39.6431C84.4873 39.9917 83.6794 40.166 82.7109 40.166C82.0026 40.166 81.3579 40.0332 80.7769 39.7676C80.2013 39.502 79.7061 39.1257 79.291 38.6387C78.876 38.1462 78.555 37.5568 78.3281 36.8706C78.1068 36.1789 77.9961 35.4097 77.9961 34.563V33.3594C77.9961 32.5127 78.1068 31.7463 78.3281 31.0601C78.555 30.3683 78.8787 29.7762 79.2993 29.2837C79.7254 28.7912 80.2373 28.4121 80.835 28.1465C81.4326 27.8809 82.105 27.748 82.8521 27.748C83.7651 27.748 84.5371 27.9196 85.168 28.2627C85.7988 28.6058 86.2886 29.0817 86.6372 29.6904C86.9914 30.2936 87.21 30.9937 87.293 31.7905H85.6992C85.6217 31.2261 85.4779 30.7419 85.2676 30.3379C85.0573 29.9284 84.7585 29.613 84.3711 29.3916C83.9837 29.1702 83.4774 29.0596 82.8521 29.0596C82.3153 29.0596 81.8421 29.1619 81.4326 29.3667C81.0286 29.5715 80.6883 29.862 80.4116 30.2383C80.1405 30.6146 79.9357 31.0656 79.7974 31.5913C79.659 32.117 79.5898 32.7008 79.5898 33.3428V34.563C79.5898 35.1551 79.6507 35.7113 79.7725 36.2314C79.8997 36.7516 80.0907 37.2082 80.3452 37.6011C80.5998 37.994 80.9235 38.3039 81.3164 38.5308C81.7093 38.7521 82.1742 38.8628 82.7109 38.8628C83.3916 38.8628 83.9339 38.7549 84.3379 38.5391C84.7419 38.3232 85.0462 38.0133 85.251 37.6094C85.4613 37.2054 85.6107 36.7212 85.6992 36.1567ZM94.8996 38.4644V33.8408C94.8996 33.4867 94.8276 33.1795 94.6837 32.9194C94.5454 32.6538 94.3351 32.4491 94.0529 32.3052C93.7706 32.1613 93.422 32.0894 93.007 32.0894C92.6196 32.0894 92.2793 32.1558 91.986 32.2886C91.6982 32.4214 91.4713 32.5957 91.3053 32.8115C91.1448 33.0273 91.0646 33.2598 91.0646 33.5088H89.5289C89.5289 33.1878 89.612 32.8696 89.778 32.5542C89.944 32.2388 90.1819 31.9538 90.4918 31.6992C90.8073 31.4391 91.1836 31.2344 91.6207 31.085C92.0635 30.93 92.556 30.8525 93.0983 30.8525C93.7513 30.8525 94.3268 30.9632 94.8248 31.1846C95.3284 31.4059 95.7213 31.7407 96.0036 32.189C96.2913 32.6317 96.4352 33.1878 96.4352 33.8574V38.041C96.4352 38.3398 96.4601 38.658 96.5099 38.9956C96.5652 39.3332 96.6455 39.6237 96.7506 39.8672V40H95.1486C95.0711 39.8229 95.0102 39.5877 94.966 39.2944C94.9217 38.9956 94.8996 38.7189 94.8996 38.4644ZM95.1652 34.5547L95.1818 35.6338H93.6295C93.1924 35.6338 92.8022 35.6698 92.4591 35.7417C92.116 35.8081 91.8283 35.9105 91.5958 36.0488C91.3634 36.1872 91.1863 36.3615 91.0646 36.5718C90.9428 36.7765 90.882 37.0173 90.882 37.2939C90.882 37.5762 90.9456 37.8335 91.0729 38.0659C91.2002 38.2983 91.3911 38.4837 91.6456 38.6221C91.9057 38.7549 92.2239 38.8213 92.6002 38.8213C93.0706 38.8213 93.4857 38.7217 93.8454 38.5225C94.2051 38.3232 94.49 38.0798 94.7003 37.792C94.9162 37.5042 95.0324 37.2248 95.049 36.9536L95.7047 37.6924C95.666 37.9248 95.5608 38.1821 95.3893 38.4644C95.2177 38.7466 94.9881 39.0177 94.7003 39.2778C94.4181 39.5324 94.0805 39.7454 93.6876 39.917C93.3003 40.083 92.8631 40.166 92.3761 40.166C91.7674 40.166 91.2334 40.047 90.7741 39.8091C90.3203 39.5711 89.9661 39.2529 89.7116 38.8545C89.4625 38.4505 89.338 37.9995 89.338 37.5015C89.338 37.02 89.4321 36.5967 89.6203 36.2314C89.8084 35.8607 90.0796 35.5535 90.4337 35.3101C90.7879 35.061 91.214 34.8729 91.7121 34.7456C92.2101 34.6183 92.7662 34.5547 93.3805 34.5547H95.1652ZM100.746 32.4297V40H99.2107V31.0186H100.705L100.746 32.4297ZM103.552 30.9688L103.544 32.3965C103.416 32.3688 103.295 32.3522 103.178 32.3467C103.068 32.3356 102.941 32.3301 102.797 32.3301C102.442 32.3301 102.13 32.3854 101.859 32.4961C101.588 32.6068 101.358 32.7617 101.17 32.9609C100.982 33.1602 100.832 33.3981 100.721 33.6748C100.616 33.946 100.547 34.2448 100.514 34.5713L100.082 34.8203C100.082 34.278 100.135 33.7689 100.24 33.293C100.351 32.8171 100.519 32.3965 100.746 32.0312C100.973 31.6605 101.261 31.3727 101.61 31.168C101.964 30.9577 102.384 30.8525 102.871 30.8525C102.982 30.8525 103.109 30.8664 103.253 30.894C103.397 30.9162 103.497 30.9411 103.552 30.9688ZM109.507 31.0186V32.1973H104.651V31.0186H109.507ZM106.294 28.8354H107.83V37.7754C107.83 38.0798 107.877 38.3094 107.971 38.4644C108.065 38.6193 108.187 38.7217 108.336 38.7715C108.486 38.8213 108.646 38.8462 108.818 38.8462C108.945 38.8462 109.078 38.8351 109.216 38.813C109.36 38.7853 109.468 38.7632 109.54 38.7466L109.548 40C109.427 40.0387 109.266 40.0747 109.067 40.1079C108.873 40.1466 108.638 40.166 108.361 40.166C107.985 40.166 107.639 40.0913 107.324 39.9419C107.008 39.7925 106.756 39.5435 106.568 39.1948C106.386 38.8407 106.294 38.3647 106.294 37.7671V28.8354Z" fill="#274C5B"/>
<defs>
<clipPath id="clip0_1_30">
<rect width="26" height="24" fill="white" transform="translate(26 23)"/>
</clipPath>
</defs>
</svg>
